# xmcd
# 
# Track frame offsets:
#     150
#     18100
#     40700
#     61230
#     65675
#     88120
#     106757
#     131392
#     151425
#     174960
#     199157
# 
# Disc length: 2909
# 
# Revision: 7
# Processed by: cddbd v1.5.2PL0 Copyright (c) Steve Scherf et al.
# Submitted via: BonkEnc v1.0.15
# 
DISCID=840b5b0b
DTITLE=3rd Force - Force Of Nature (HOMCD_7077)
DYEAR=1995
DGENRE=Higher Octave
TTITLE0=Forever Yours
TTITLE1=Listen To Your Heart
TTITLE2=Sundancer
TTITLE3=Here Comes The Night (intro)
TTITLE4=Here Comes The Night
TTITLE5=Behind Closed Eyes
TTITLE6=Force Of Nature
TTITLE7=Vital Connection
TTITLE8='Til We Meet Again
TTITLE9=3rd Force Party
TTITLE10=Coming Home
EXTD=YEAR: 1995
EXTT0=
EXTT1=
EXTT2=
EXTT3=
EXTT4=
EXTT5=
EXTT6=
EXTT7=
EXTT8=
EXTT9=
EXTT10=
PLAYORDER=
